<svg xmlns="http://www.w3.org/2000/svg" width="115" height="36" fill="none" viewBox="0 0 115 36">
    <path fill="#0082FD" d="M76.051 0H65.086c-.72 0-1.41.287-1.918.798-.509.51-.794 1.203-.794 1.926v1.77c0 .108.042.212.119.289.076.076.18.12.287.12h10.966c.719 0 1.409-.288 1.918-.798.508-.511.794-1.204.794-1.926V.409c0-.109-.043-.213-.12-.29-.076-.076-.18-.119-.287-.119zM61.03 24.97H50.059c-.719 0-1.409.287-1.917.797-.51.511-.795 1.204-.795 1.926v1.77c0 .109.043.213.12.29.076.076.18.119.287.119h10.972c.72 0 1.41-.287 1.918-.798.508-.51.794-1.203.794-1.926v-1.77c0-.108-.043-.212-.119-.289-.076-.076-.18-.12-.287-.12zM75.386 8.056h-2.015c-.632.001-1.244.224-1.73.63s-.816.97-.932 1.594c-.533 2.905-2.076 5.53-4.148 6.937h-2.926c-.39 0-.66-.261-.66-.496v-.393c1.316-2.412 2.038-5.104 2.107-7.854.001-.054-.008-.109-.028-.16-.02-.05-.05-.097-.087-.137-.038-.039-.084-.07-.134-.091-.05-.022-.104-.033-.158-.032l-2.017.002c-.632.001-1.244.224-1.73.63s-.816.97-.932 1.594c-.533 2.905-2.076 5.53-4.148 6.937h-1.869c-.389 0-.661-.261-.661-.496v-.408c.069-.13.135-.26.204-.394.576-1.152.85-2.433.794-3.72-.056-1.289-.44-2.541-1.113-3.639-.673-1.097-1.615-2.003-2.736-2.632-1.12-.629-2.383-.96-3.667-.96h-.93c-1.331-.003-2.621.463-3.645 1.318-1.023.855-1.715 2.043-1.955 3.358-.606 3.343-2.127 6.12-4.122 7.576h-1.21c-.392 0-.663-.262-.663-.496v-.516c1.45-2.045 2.308-4.452 2.482-6.956.01-.147.019-.294.026-.441.039-.835-.204-2.427-2.266-3.711-2.562-1.593-7.249-2.191-10.888-.157-1.776.993-3.82 2.882-4.611 6.437-.091.4-.091.814-.001 1.213.09.4.27.773.524 1.093.254.32.576.58.944.757.367.178.77.27 1.177.27h1.492c.106 0 .207-.042.284-.116.075-.074.12-.174.123-.28.087-2.784 1.091-4.582 2.99-5.348 2.109-.85 4.452-.248 5.319.242-.474 4.514-4.362 8.007-8.986 8.007H14.96c-.389 0-.66-.261-.66-.497v-.592c.431-2.345 1.814-4.85 3.874-6.858.075-.074.118-.175.12-.28.003-.106-.035-.209-.106-.287l-1.053-1.149c-.44-.48-1.037-.785-1.683-.858-.434-.513-.974-.926-1.583-1.208-.609-.282-1.272-.427-1.942-.426h-1.73c-1.588-.004-3.153.389-4.553 1.143s-2.59 1.846-3.466 3.177c-.665 1.009-1.228 2.082-1.68 3.204C.078 13.64-.08 14.782.04 15.91c.12 1.129.514 2.21 1.147 3.152.633.94 1.486 1.71 2.484 2.244.998.533 2.112.812 3.242.812h.355c1.46 0 2.881-.465 4.06-1.33 1.016.862 2.305 1.334 3.636 1.33H22.877c2.684.002 5.312-.776 7.566-2.238.524.698 1.203 1.264 1.983 1.653.78.388 1.639.589 2.51.585h2.602l.572-.34c.524-.31 1.023-.66 1.492-1.049.566.273 1.246.597 2.07.983.978.456 2.034.712 3.11.755 1.076.044 2.15-.127 3.16-.503l.202-.076.186-.11c.609-.364 1.184-.784 1.717-1.253 1.052 1.028 2.464 1.6 3.932 1.595h3.197l.555-.312c.682-.384 1.324-.833 1.92-1.341.522.525 1.144.942 1.828 1.225.684.284 1.417.428 2.157.426h4.254l.555-.31c4.3-2.412 7.218-7.731 7.351-13.335.001-.054-.008-.109-.029-.16-.02-.05-.05-.097-.088-.136-.038-.039-.084-.07-.134-.09-.05-.022-.104-.032-.159-.032zm-68.125 9.16h-.356c-.332-.002-.658-.084-.951-.241-.293-.158-.543-.384-.729-.66-.185-.277-.3-.595-.336-.927-.035-.332.012-.667.135-.976.328-.816.737-1.597 1.221-2.33.432-.655 1.02-1.192 1.709-1.562.69-.37 1.46-.561 2.243-.557h1.24c-1.051 1.706-1.786 3.589-2.17 5.557-.085.473-.332.902-.699 1.212-.366.31-.829.48-1.307.484zm38.784.221c-.763.23-1.583.172-2.306-.164-.33-.154-.633-.299-.915-.432 1.106-1.962 1.868-4.1 2.251-6.321.036-.185.136-.352.282-.47.145-.12.328-.183.516-.181h.93c.451 0 .895.117 1.289.34.393.22.724.54.96.926s.37.827.39 1.28c.018.453-.079.903-.282 1.308-.829 1.653-1.901 2.931-3.12 3.714h.005zM23.919 33.821v1.77c0 .109.043.213.12.29.075.076.179.12.287.12h2.76c.72 0 1.41-.288 1.919-.799.508-.51.794-1.203.794-1.925v-2.18H26.63c-.72 0-1.409.288-1.918.798-.508.511-.794 1.204-.794 1.926zM32.092 24.97H21.127c-.72 0-1.41.287-1.918.797-.509.511-.794 1.204-.794 1.926v1.77c0 .109.042.213.119.29.076.076.18.119.287.119h10.966c.719 0 1.409-.287 1.918-.798.508-.51.794-1.203.794-1.926v-1.77c0-.108-.043-.212-.12-.289-.076-.076-.179-.12-.287-.12zM114.716 1.9l-.206-.032c-4.301-.583-10.721.658-16.723 4.005-3.426 1.88-6.542 4.28-9.238 7.116-.123.129-.247.258-.367.39-.632-.546-1.192-1.16-1.899-1.907-.659-.696-2.6-3.036-2.68-3.132l-.166-.186c-.044-.048-.1-.082-.164-.097-.063-.015-.129-.01-.189.013-.06.024-.112.065-.149.119-.036.053-.056.117-.056.182.007 1.277.138 2.551.392 3.803.124.627.272 1.249.463 1.863.191.614.415 1.217.67 1.807.51 1.196 1.17 2.32 1.963 3.348.81 1.051 1.804 1.946 2.932 2.641l.481.295.394-.438s.487-.544.652-.724c3.5-3.774 6.425-6.297 10.918-9.793 3.115-2.394 6.349-4.627 9.691-6.69 1.243-.768 2.248-1.34 3.39-1.96.045-.025.084-.06.114-.102.03-.043.05-.091.058-.143.006-.043.004-.087-.007-.13-.01-.042-.029-.082-.055-.117-.026-.036-.059-.065-.096-.088-.038-.022-.079-.037-.123-.043z"/>
</svg>
