<svg width="40" height="40" viewBox="0 0 40 40" fill="none" xmlns="http://www.w3.org/2000/svg">
<g clip-path="url(#clip0_11878:55127)">
<path d="M20 7.66602C14.4066 7.66602 9.85596 12.2166 9.85596 17.8101C9.85596 23.4035 14.4066 27.9542 20 27.9542C25.5935 27.9542 30.1441 23.4036 30.1441 17.8102C30.1441 12.2166 25.5935 7.66602 20 7.66602ZM20 25.1877C15.9321 25.1877 12.6225 21.8781 12.6225 17.8102C12.6225 13.7422 15.9321 10.4326 20 10.4326C24.068 10.4326 27.3775 13.7421 27.3775 17.8101C27.3775 21.8781 24.068 25.1877 20 25.1877Z" fill="#202124"/>
<path d="M35.8334 16.25H32.9167V25L35.8334 23.75L37.9167 22.0833V17.9167L35.8334 16.25Z" fill="#FFE300" stroke="#202124"/>
<path d="M4.16658 16.25H7.08325V25L4.16658 23.75L2.08325 22.0833V17.9167L4.16658 16.25Z" fill="#FFE300"/>
<path d="M34.928 14.237H34.4583C33.7594 6.87461 27.5423 1.0957 20 1.0957C12.4577 1.0957 6.24062 6.87461 5.54172 14.237H5.07203C2.27531 14.237 0 16.5123 0 19.309V20.6923C0 23.489 2.27531 25.7643 5.07203 25.7643H8.24203V15.6202C8.24203 9.13687 13.5166 3.86234 19.9999 3.86234C26.4833 3.86234 31.7578 9.13687 31.7578 15.6202V25.3144L25.894 32.8537H24.4594C23.8684 30.9527 22.0928 29.5684 20 29.5684C17.4257 29.5684 15.3314 31.6627 15.3314 34.2369C15.3314 36.8112 17.4257 38.9055 20 38.9055C22.0928 38.9055 23.8684 37.5212 24.4594 35.6202H27.2472L34.9129 25.7643H34.928C37.7248 25.7643 40.0001 23.489 40.0001 20.6923V19.309C40 16.5123 37.7247 14.237 34.928 14.237ZM5.47547 22.9977H5.07203C3.80078 22.9977 2.76656 21.9635 2.76656 20.6923V19.309C2.76656 18.0377 3.80078 17.0035 5.07203 17.0035H5.47547V22.9977ZM20 36.139C18.9512 36.139 18.098 35.2858 18.098 34.2369C18.098 33.1881 18.9512 32.3349 20 32.3349C21.0488 32.3349 21.902 33.1881 21.902 34.2369C21.902 35.2857 21.0488 36.139 20 36.139ZM37.2334 20.6923C37.2334 21.9635 36.1992 22.9977 34.928 22.9977H34.5245V17.0035H34.928C36.1992 17.0035 37.2334 18.0377 37.2334 19.309V20.6923Z" fill="#202124"/>
</g>
<defs>
<clipPath id="clip0_11878:55127">
<rect width="40" height="40" fill="white"/>
</clipPath>
</defs>
</svg>
