<svg width="40" height="40" viewBox="0 0 40 40" fill="none" xmlns="http://www.w3.org/2000/svg">
<rect x="9" y="25" width="27" height="15" fill="#FFE300"/>
<path d="M36.5 25.5L32 14H3.5L8.5 25.5H36.5Z" stroke="#202124"/>
<path d="M33.2422 13.8661V0H2.77344V15.2344L6.74367 25.7727C6.74789 25.785 6.75312 25.7967 6.75781 25.8089V40H37.2266V24.2188L33.2422 13.8661ZM5.11719 2.34375H30.8984V12.8906H5.11719V2.34375ZM5.35156 15.2344H31.2348L34.5703 24.2188H8.68703L5.35156 15.2344ZM34.8828 37.6562H9.10156V26.5625H34.8828V37.6562Z" fill="#202124"/>
<path d="M12.3047 4.29688H7.53906V6.64062H12.3047V4.29688Z" fill="#202124"/>
<path d="M16.1328 8.4375H7.46094V10.7812H16.1328V8.4375Z" fill="#202124"/>
<path d="M29.4141 18.2031H10.8984V20.5469H29.4141V18.2031Z" fill="#202124"/>
<path d="M30.2428 32.3067C30.1704 32.1379 30.0667 31.9944 29.9316 31.8761C29.7964 31.7579 29.6336 31.6553 29.4431 31.5685C29.2524 31.4816 29.0389 31.402 28.8025 31.3297C28.7494 31.3152 28.6987 31.2996 28.6506 31.2827C28.6023 31.2659 28.5565 31.2526 28.5131 31.2429V30.5915C28.6481 30.6157 28.782 30.6506 28.9148 30.6965C29.0475 30.7424 29.1668 30.7918 29.2731 30.8448C29.3985 30.9027 29.5143 30.9655 29.6205 31.033L30.2285 29.8677C30.1271 29.8196 30.0161 29.7677 29.8956 29.7121C29.775 29.6566 29.6459 29.6035 29.5084 29.5529C29.3709 29.5022 29.2272 29.4577 29.0778 29.419C28.9282 29.3804 28.7738 29.3515 28.6146 29.3321V28.5938H28.0356V29.3248C27.8087 29.349 27.5952 29.4044 27.395 29.4913C27.1948 29.5781 27.0198 29.6939 26.8703 29.8387C26.7207 29.9834 26.6025 30.1559 26.5157 30.3562C26.4288 30.5565 26.3854 30.7868 26.3854 31.0473C26.3854 31.2355 26.4107 31.402 26.4614 31.5467C26.5121 31.6915 26.5905 31.8206 26.6967 31.934C26.8028 32.0473 26.9379 32.1487 27.102 32.238C27.266 32.3273 27.4614 32.4105 27.6882 32.4877C27.8378 32.5409 27.9874 32.5866 28.137 32.6252V33.2621C27.9631 33.238 27.793 33.1958 27.6265 33.1354C27.46 33.0752 27.314 33.0136 27.1886 32.9509C27.039 32.8785 26.8991 32.8013 26.7689 32.7192L26.1609 33.9569C26.4214 34.1113 26.7157 34.2391 27.0439 34.3405C27.3719 34.4418 27.7025 34.507 28.0354 34.5359V35.4262H28.6144V34.5505C28.8363 34.536 29.051 34.4962 29.2585 34.431C29.466 34.3659 29.6505 34.2695 29.8122 34.1416C29.9739 34.0137 30.1041 33.8497 30.2031 33.6494C30.3019 33.4491 30.3514 33.2067 30.3514 32.922C30.3514 32.6807 30.3153 32.4757 30.2428 32.3067ZM28.1368 31.1198C28.0402 31.0812 27.9678 31.039 27.9196 30.993C27.8714 30.9473 27.8473 30.8881 27.8473 30.8157C27.8473 30.6759 27.9438 30.5938 28.1368 30.5697V31.1198ZM28.7592 33.2114C28.711 33.2501 28.629 33.2742 28.5132 33.2838V32.7482C28.6096 32.7869 28.6868 32.8314 28.7448 32.8821C28.8027 32.9327 28.8317 32.9919 28.8317 33.0595C28.8317 33.1222 28.8075 33.1728 28.7592 33.2114Z" fill="#202124"/>
<path d="M16.9141 33.125H12.1484V35.4688H16.9141V33.125Z" fill="#202124"/>
<path d="M20.7422 28.9844H12.0703V31.3281H20.7422V28.9844Z" fill="#202124"/>
</svg>
