<svg width="40" height="40" viewBox="0 0 40 40" fill="none" xmlns="http://www.w3.org/2000/svg">
<path d="M19.2307 32.308V17.6227L33.8461 10.7695V26.9234L19.2307 32.308Z" fill="#FFE300"/>
<path fill-rule="evenodd" clip-rule="evenodd" d="M18.6453 1L1 8.99086V27.0091L18.6453 35L36.2906 27.0091V22.0473C36.776 23.1563 37.0381 24.3722 37.0381 25.6316C37.0381 30.5526 33.0345 34.5562 28.1135 34.5562V31.0639L23.6455 35.532L28.1135 40V36.8844C34.3183 36.8844 39.3663 31.8364 39.3663 25.6317C39.3663 22.6974 38.2387 19.9505 36.2906 17.8956V8.99086L18.6453 1ZM17.2584 16.3873V31.388L3.77367 25.1802V10.8198L18.6453 4.01766L23.5998 6.14102L8.32102 12.6891V24.3965H11.0947V14.518L27.1204 7.64977L32.383 9.90523L17.2584 16.3873ZM33.6454 25.5L20.0322 31.3879V18.2162L33.6454 12V25.5ZM25.2681 19.6129V22.3866L32.6645 19.1506V16.377L25.2681 19.6129ZM25.2681 23.6177V26.3913L28.9663 24.7734V21.9997L25.2681 23.6177Z" fill="#202124"/>
</svg>
