<svg width="40" height="40" viewBox="0 0 40 40" fill="none" xmlns="http://www.w3.org/2000/svg">
<path fill-rule="evenodd" clip-rule="evenodd" d="M14.9999 2.91699L13.7499 7.50033H10.4166V12.0837L8.33325 14.5837L10.4166 17.0837V21.2503L13.7499 22.5003V25.8337L17.4999 24.5837L20.8333 27.0837L23.3332 24.5837L26.6666 25.8337L28.7499 21.2503H31.6666V17.0837L33.3332 14.5837L30.4166 12.0837L31.6666 7.50033H28.7499L26.6666 2.91699L23.3332 5.00033L20.8333 1.66699L17.4999 5.00033L14.9999 2.91699ZM19.9999 20.0003C17.2429 20.0003 14.9999 17.7573 14.9999 15.0003C14.9998 12.2433 17.2428 10.0003 19.9999 10.0003C22.757 10.0003 24.9999 12.2434 24.9999 15.0003C24.9999 17.7573 22.757 20.0003 19.9999 20.0003Z" fill="#FFE300"/>
<path d="M20.145 7.53711C16.2182 7.53711 13.0236 10.7318 13.0236 14.6586C13.0236 18.5854 16.2182 21.78 20.145 21.78C24.0718 21.78 27.2665 18.5854 27.2665 14.6586C27.2665 10.7318 24.0718 7.53711 20.145 7.53711ZM20.145 19.2117C17.6344 19.2117 15.5919 17.1691 15.5919 14.6586C15.5918 12.148 17.6343 10.1055 20.145 10.1055C22.6557 10.1055 24.6981 12.148 24.6981 14.6586C24.6981 17.1691 22.6557 19.2117 20.145 19.2117Z" fill="#202124"/>
<path d="M31.928 22.2561L32.8205 22.0194L31.6976 17.7851L34.8031 14.6954L31.7134 11.59L32.858 7.36147L28.6295 6.21686L27.5066 1.98257L23.2723 3.10554L20.1827 0L17.0772 3.08968L12.8487 1.94507L11.7041 6.17358L7.46971 7.29655L8.59268 11.5308L5.48722 14.6205L8.5769 17.7261L7.43229 21.9546L8.11885 22.1404L3.08386 34.692L10.6311 34.2902L16.636 40L20 31.6136L23.364 40L29.3688 34.2902L36.9161 34.692L31.928 22.2561ZM15.662 35.5296L11.5993 31.6666L6.96581 31.9133L10.6149 22.816L11.6607 23.0991L12.7837 27.3333L17.018 26.2104L18.7157 27.9168L15.662 35.5296ZM17.7928 23.3478L14.6077 24.1925L13.763 21.0074L10.5823 20.1464L11.4433 16.9657L9.11924 14.6297L11.4552 12.3056L10.6105 9.12053L13.7956 8.27584L14.6567 5.09515L17.8374 5.95616L20.1734 3.6321L22.4974 5.96811L25.6826 5.12343L26.5273 8.3085L29.708 9.16951L28.8469 12.3502L31.171 14.6862L28.8351 17.0103L29.6798 20.1954L26.4947 21.04L25.6337 24.2207L22.453 23.3597L20.1169 25.6837L17.7928 23.3478ZM28.4008 31.6666L24.3382 35.5296L21.35 28.0799L23.2131 26.2263L27.4416 27.3709L28.5862 23.1424L29.4268 22.9194L33.0344 31.9131L28.4008 31.6666Z" fill="#202124"/>
</svg>
